<svg xmlns="http://www.w3.org/2000/svg" viewBox="0 0 233.9 28.7"><title>FDIC Logo</title><desc>Capital One is a Member FDIC</desc><path d="M0 27.9L4.6.8h7L17 15.2 22.4.7h7L34 27.9h-7l-2.3-15.6-6.4 15.6h-2.8L9.4 12.3 7 27.9H0zM51.3 6.7h-8.4v4.5h7.9v6h-7.9v4.7h8.4v6H35.9V.8h15.4v5.9zM52.6 27.9L57.2.8h7l5.4 14.5L75 .8h7l4.6 27.1h-7l-2.3-15.6-6.4 15.6H68l-6-15.6-2.3 15.6h-7.1zM88.5.8H99c2.5 0 4.4.6 5.7 1.8s1.9 2.9 1.9 5.2c0 1.4-.2 2.5-.7 3.4-.5.9-1.2 1.7-2.2 2.3 1 .2 1.9.5 2.6.9.7.4 1.3.9 1.7 1.5s.8 1.2 1 1.9c.2.7.3 1.5.3 2.3 0 1.3-.2 2.4-.7 3.4-.4 1-1.1 1.8-1.9 2.5-.8.7-1.8 1.2-2.9 1.5-1.2.3-2.4.5-3.9.5H88.5V.8zm7 10.6h1.3c2.2 0 3.3-.9 3.3-2.6 0-1.8-1.1-2.6-3.3-2.6h-1.3v5.2zm0 11H97c1.8 0 3-.2 3.8-.7.8-.5 1.2-1.2 1.2-2.2 0-1-.4-1.7-1.2-2.2-.8-.5-2-.7-3.8-.7h-1.5v5.8zM126.2 6.7h-8.4v4.5h7.9v6h-7.9v4.7h8.4v6h-15.4V.8h15.4v5.9zM151.3 27.9h-8.8l-6.7-10.4v10.4h-7.1V.8h11c1.5 0 2.8.2 4 .7 1.1.4 2.1 1 2.8 1.8.7.8 1.3 1.7 1.7 2.7.4 1 .6 2.1.6 3.2 0 2.1-.5 3.7-1.5 5-1 1.3-2.5 2.2-4.4 2.6l8.4 11.1zm-15.5-15h1.3c1.4 0 2.5-.3 3.2-.9s1.1-1.4 1.1-2.5-.4-1.9-1.1-2.5-1.8-.9-3.2-.9h-1.3v6.8zM176.9 6.7h-8.5v4.5h7.7v6h-7.7v10.7h-7.1V.8h15.6v5.9zM178.5.8h10.4c1.8 0 3.6.4 5.2 1.1 1.6.7 3 1.7 4.2 3 1.2 1.2 2.2 2.7 2.9 4.3.7 1.6 1 3.4 1 5.2 0 1.8-.3 3.5-1 5.1-.7 1.6-1.6 3.1-2.8 4.3s-2.6 2.2-4.2 3c-1.6.7-3.4 1.1-5.2 1.1h-10.4V.8zm7 21.1h1.6c1.2 0 2.3-.2 3.3-.6s1.8-.9 2.4-1.6 1.2-1.5 1.5-2.4c.3-.9.5-1.9.5-3s-.2-2.1-.5-3c-.4-.9-.9-1.7-1.5-2.4-.7-.7-1.5-1.2-2.4-1.6s-2-.6-3.2-.6h-1.6v15.2zM211.2.8v27.1h-7.1V.8h7.1zM233.9 9.8c-1.6-2-3.6-3-6-3-1.1 0-2 .2-2.9.6-.9.4-1.7.9-2.3 1.6-.6.7-1.2 1.4-1.5 2.4s-.6 1.9-.6 3 .2 2.1.6 3 .9 1.7 1.5 2.4c.7.7 1.4 1.2 2.3 1.6.9.4 1.8.6 2.9.6 2.3 0 4.3-1 6.1-2.9v8.4l-.7.3c-1.1.4-2.1.7-3 .8-.9.2-1.9.3-2.8.3-1.9 0-3.7-.4-5.4-1.1-1.7-.7-3.2-1.7-4.5-3-1.3-1.3-2.4-2.8-3.2-4.6-.8-1.8-1.2-3.7-1.2-5.8 0-2.1.4-4 1.2-5.7.8-1.7 1.8-3.2 3.1-4.5 1.3-1.3 2.8-2.2 4.6-3 1.7-.7 3.5-1.1 5.4-1.1 1.1 0 2.1.1 3.2.3 1 .2 2.1.6 3.3 1.1v8.3z"/></svg>