<svg xmlns="http://www.w3.org/2000/svg" viewBox="0 0 24 24"><path d="M22.223 0H1.77C.795 0 0 .775 0 1.73v20.537c0 .956.794 1.73 1.77 1.73h20.453c.98 0 1.777-.775 1.777-1.73V1.73C24 .774 23.203 0 22.223 0z" fill="#0065A1"/><path d="M3.558 8.997h3.56V20.45h-3.56V8.997zm1.78-5.693c1.14 0 2.064.925 2.064 2.063 0 1.14-.925 2.064-2.063 2.064-1.142 0-2.065-.924-2.065-2.063 0-1.138.923-2.063 2.064-2.063M9.35 8.997h3.415v1.565h.048c.475-.9 1.636-1.85 3.368-1.85 3.606 0 4.27 2.372 4.27 5.456v6.282h-3.556v-5.57c0-1.328-.024-3.036-1.85-3.036-1.852 0-2.136 1.447-2.136 2.94v5.666H9.35V8.997z" fill="#FFF"/></svg>