<svg xmlns="http://www.w3.org/2000/svg" viewBox="0 0 24 24"><path fill="#EA0274" d="M0 0h24v24H0z"/><g fill="#FFF"><path d="M12 6.67c1.736 0 1.94.008 2.627.04.634.028.978.134 1.207.223.303.118.52.26.747.486.228.226.37.443.487.746.09.23.195.573.224 1.207.032.685.04.89.04 2.627s-.008 1.94-.04 2.627c-.028.634-.134.978-.223 1.207-.118.303-.26.52-.486.747-.226.228-.443.37-.746.487-.23.09-.573.195-1.207.224-.685.032-.89.04-2.627.04s-1.94-.008-2.627-.04c-.634-.028-.978-.134-1.207-.223-.303-.118-.52-.26-.747-.486-.228-.226-.37-.443-.487-.746-.09-.23-.195-.573-.224-1.207-.032-.686-.04-.89-.04-2.627s.008-1.94.04-2.627c.028-.633.134-.977.223-1.207.118-.303.26-.52.486-.747.226-.228.443-.37.746-.487.23-.09.574-.195 1.207-.224.686-.032.89-.04 2.627-.04m0-1.17c-1.765 0-1.987.007-2.68.04-.692.03-1.164.14-1.578.3-.427.167-.79.39-1.15.75-.362.362-.585.725-.75 1.152-.16.414-.27.886-.303 1.578-.033.693-.04.915-.04 2.68 0 1.765.007 1.987.04 2.68.03.692.14 1.164.3 1.578.167.427.39.79.75 1.15.362.362.725.585 1.152.75.413.162.886.272 1.578.303.693.033.915.04 2.68.04s1.987-.007 2.68-.04c.692-.03 1.164-.14 1.578-.3.427-.167.79-.39 1.15-.75s.585-.725.75-1.152c.162-.413.272-.886.303-1.578.033-.693.04-.915.04-2.68s-.007-1.987-.04-2.68c-.03-.692-.14-1.164-.3-1.578-.167-.427-.39-.79-.75-1.15-.362-.362-.725-.585-1.152-.75-.413-.162-.886-.272-1.578-.303-.693-.033-.915-.04-2.68-.04z"/><path d="M12 8.662c-1.843 0-3.338 1.494-3.338 3.338 0 1.843 1.494 3.338 3.338 3.338s3.338-1.494 3.338-3.338c0-1.843-1.495-3.338-3.338-3.338zm0 5.505c-1.197 0-2.167-.97-2.167-2.167s.97-2.167 2.167-2.167 2.167.97 2.167 2.167-.97 2.167-2.167 2.167z"/><circle cx="15.47" cy="8.53" r=".78"/></g></svg>